# File created by Blade
# Date/Time:  Tue Jan 27 17:16:27 2015
# Frame Rate: 120.000 fps
#------------------------------------------------------
:FULLY-SPECIFIED
:DEGREES
3528
root -3.860227 36.765667 3.244134 93.536500 68.918176 86.104838
Spine 13.017774 -8.905697 4.168829
Head 0.992061 18.454008 -16.607986
LeftShoulder 10.071111 -19.627837 5.115927
LeftArm 24.478825 -20.942433 -57.926871
LeftForeArm -11.165487 -0.000000 61.981842
LeftHand -6.955777 -0.000000 49.716750
LeftHandThumb1 -26.253704 0.000000 33.147579
RightShoulder -1.122638 -17.078904 -9.152511
RightArm -0.050563 -5.452016 48.086304
RightForeArm -158.769944 -0.000000 26.737482
RightHand -1.241579 -0.000000 3.944815
RightHandThumb1 -24.326973 -0.000000 -32.862282
LeftUpLeg -93.346875 39.304005 -34.707095
LeftLeg 122.231452 -0.000000 -0.000000
LeftFoot 16.447339 -10.309687 -46.104217
LeftToeBase 17.947315 -0.000000 -0.000000
RightUpLeg -27.487707 -31.975708 -3.636878
RightLeg 31.949932 -0.000000 -0.000000
RightFoot -30.339919 -31.170752 15.713036
RightToeBase 1.211472 -0.000000 -0.000000
3529
root -3.849950 36.759534 3.238145 92.759702 68.853214 85.242092
Spine 12.889243 -8.749517 3.981526
Head 1.045924 18.526491 -16.580141
LeftShoulder 10.029156 -19.663421 5.165256
LeftArm 24.402587 -20.935452 -57.882676
LeftForeArm -11.235305 0.000000 61.863314
LeftHand -6.775737 -0.000000 49.778211
LeftHandThumb1 -26.253704 0.000000 33.147579
RightShoulder -1.101490 -17.086936 -9.124669
RightArm 0.043229 -5.623631 48.149066
RightForeArm -159.081597 -0.000000 26.910440
RightHand -1.200849 -0.000000 3.858656
RightHandThumb1 -24.326973 -0.000000 -32.862282
LeftUpLeg -92.448824 39.546731 -33.247218
LeftLeg 121.482169 -0.000000 -0.000000
LeftFoot 15.643495 -10.307136 -45.319158
LeftToeBase 18.179071 -0.000000 -0.000000
RightUpLeg -27.662461 -31.850459 -3.624462
RightLeg 32.064689 -0.000000 -0.000000
RightFoot -30.247308 -31.124666 15.506127
RightToeBase 1.079582 -0.000000 -0.000000
3530
root -3.838877 36.757404 3.228606 91.898968 68.705491 84.288628
Spine 12.769538 -8.561265 3.696059
Head 1.076630 18.611355 -16.570304
LeftShoulder 9.995857 -19.675156 5.228227
LeftArm 24.316408 -20.929423 -57.801984
LeftForeArm -11.229934 0.000000 61.770253
LeftHand -6.561758 -0.000000 49.637636
LeftHandThumb1 -26.253704 0.000000 33.147579
RightShoulder -1.090293 -17.090410 -9.084013
RightArm 0.129006 -5.770896 48.215362
RightForeArm -159.400380 -0.000000 27.040189
RightHand -1.227211 -0.000000 3.620015
RightHandThumb1 -24.326973 -0.000000 -32.862282
LeftUpLeg -91.319843 39.780715 -31.552132
LeftLeg 120.628386 -0.000000 -0.000000
LeftFoot 15.011336 -10.339696 -44.847980
LeftToeBase 18.094241 -0.000000 -0.000000
RightUpLeg -27.840602 -31.741826 -3.687358
RightLeg 32.161487 -0.000000 -0.000000
RightFoot -30.188594 -30.995869 15.391862
RightToeBase 0.906496 -0.000000 -0.000000
3531
root -3.828314 36.759459 3.214779 91.010104 68.515462 83.312974
Spine 12.675982 -8.357054 3.386260
Head 1.043677 18.662984 -16.627002
LeftShoulder 9.986178 -19.672834 5.291335
LeftArm 24.227003 -20.956686 -57.729098
LeftForeArm -11.238320 -0.000000 61.749411
LeftHand -6.588989 0.000000 49.658895
LeftHandThumb1 -26.253704 0.000000 33.147579
RightShoulder -1.106972 -17.119085 -9.063001
RightArm 0.239774 -6.009336 48.292736
RightForeArm -159.784822 -0.000000 27.172283
RightHand -1.357496 -0.000000 3.733159
RightHandThumb1 -24.326973 -0.000000 -32.862282
LeftUpLeg -89.970891 39.976509 -29.602834
LeftLeg 119.708406 -0.000000 -0.000000
LeftFoot 14.276182 -10.317985 -44.259510
LeftToeBase 18.376000 -0.000000 -0.000000
RightUpLeg -28.015748 -31.672892 -3.782155
RightLeg 32.246360 -0.000000 -0.000000
RightFoot -30.069685 -30.906935 15.045360
RightToeBase 0.980650 -0.000000 -0.000000
